<svg width="8" height="18" viewBox="0 0 8 18" fill="none" xmlns="http://www.w3.org/2000/svg">
<path d="M6.64001 0.480166C6.82001 0.480166 7.00002 0.480166 7.36002 0.480166V3.18017C7.18002 3.18017 6.82002 3.18017 6.46002 3.18017C6.10002 3.18017 5.74002 3.18017 5.56002 3.36017C5.38002 3.54017 5.38001 3.72017 5.38001 4.14017C5.38001 4.50017 5.38001 4.74017 5.38001 5.10017H7.36002V7.38017H5.38001V17.2802H2.32002V7.32017H0.700012V5.04017H2.32002V4.26017C2.32002 2.94017 2.50002 1.98017 2.86002 1.56017C3.40002 0.780166 4.48001 0.420166 6.10001 0.420166C6.28001 0.480166 6.46001 0.480166 6.64001 0.480166Z" fill="#111111"/>
</svg>
