<svg width="28" height="28" viewBox="0 0 28 28" fill="none" xmlns="http://www.w3.org/2000/svg">
<path d="M11.8225 0.4135L19.3495 7.9495L19.4295 7.8695C19.5872 7.71518 19.7983 7.62768 20.0189 7.62526C20.2395 7.62284 20.4525 7.70568 20.6135 7.8565L20.6195 7.8625L21.4865 8.7295C21.7915 9.0345 21.8015 9.4995 21.5695 9.8235L21.5655 9.8305L21.4225 10.0225L27.5825 16.1825C28.1325 16.7325 28.1325 17.6125 27.5825 18.1625L18.1525 27.5925C17.6025 28.1425 16.7225 28.1425 16.1725 27.5925L11.7255 23.1455C11.6516 23.2386 11.5589 23.315 11.4534 23.3697C11.3479 23.4244 11.2321 23.4561 11.1134 23.4628C10.9948 23.4695 10.8761 23.451 10.7651 23.4086C10.6541 23.3661 10.5534 23.3007 10.4695 23.2165L7.8695 20.6165C7.71518 20.4588 7.62768 20.2477 7.62526 20.0271C7.62284 19.8065 7.70568 19.5935 7.8565 19.4325L7.8625 19.4255L7.9395 19.3495L0.4125 11.8225C-0.1375 11.2725 -0.1375 10.3925 0.4125 9.8425L9.8425 0.4125C10.3925 -0.1375 11.2725 -0.1375 11.8225 0.4125V0.4135ZM18.4045 8.8935L16.6485 7.1385C16.5933 7.08159 16.5273 7.03634 16.4543 7.00544C16.3812 6.97454 16.3028 6.95862 16.2235 6.95862C16.1442 6.95862 16.0658 6.97454 15.9928 7.00544C15.9197 7.03634 15.8537 7.08159 15.7985 7.1385L12.2185 10.7185C12.1618 10.7748 12.1168 10.8418 12.086 10.9156C12.0553 10.9894 12.0395 11.0686 12.0395 11.1485C12.0395 11.2284 12.0553 11.3076 12.086 11.3814C12.1168 11.4552 12.1618 11.5222 12.2185 11.5785L13.9675 13.3275L14.5775 12.7175L13.0125 11.1525L16.2225 7.9325L17.7915 9.5065L18.4045 8.8935ZM13.3285 13.9655L11.5745 12.2115C11.5193 12.1546 11.4533 12.1093 11.3803 12.0784C11.3072 12.0475 11.2288 12.0316 11.1495 12.0316C11.0702 12.0316 10.9918 12.0475 10.9188 12.0784C10.8457 12.1093 10.7797 12.1546 10.7245 12.2115L7.1445 15.7915L7.1395 15.7965L7.1345 15.8015C6.8945 16.0315 6.8945 16.4115 7.1345 16.6515L8.8865 18.4035L9.5025 17.7875L7.9325 16.2235L11.1525 13.0135L12.7165 14.5765L13.3285 13.9655ZM6.8225 6.1935L10.4025 9.7735C10.6425 10.0135 11.0225 10.0135 11.2525 9.7635L14.8325 6.1835C14.8894 6.12933 14.9347 6.06417 14.9656 5.99197C14.9965 5.91978 15.0125 5.84205 15.0125 5.7635H15.0225C15.0225 5.6135 14.9625 5.4535 14.8425 5.3335L11.2625 1.7535C11.2062 1.69666 11.1393 1.65153 11.0655 1.62074C10.9917 1.58994 10.9125 1.57409 10.8325 1.57409C10.7525 1.57409 10.6733 1.58994 10.5995 1.62074C10.5257 1.65153 10.4588 1.69666 10.4025 1.7535L6.8225 5.3435C6.5825 5.5735 6.5825 5.9535 6.8225 6.1935ZM1.7525 11.2635L5.3325 14.8435C5.5725 15.0835 5.9525 15.0835 6.1825 14.8435L9.7625 11.2635C9.82062 11.2082 9.86662 11.1414 9.8976 11.0674C9.92858 10.9934 9.94387 10.9137 9.9425 10.8335H9.9525C9.9525 10.6735 9.8925 10.5235 9.7725 10.4035L6.1925 6.8235C6.13731 6.76659 6.07126 6.72134 5.99825 6.69044C5.92525 6.65954 5.84678 6.64361 5.7675 6.64361C5.68822 6.64361 5.60976 6.65954 5.53675 6.69044C5.46374 6.72134 5.39769 6.76659 5.3425 6.8235L1.7525 10.4135C1.5125 10.6435 1.5125 11.0235 1.7525 11.2635ZM8.6855 20.0175L11.0475 22.3805L20.6835 9.3405L20.0285 8.6855L8.6855 20.0175Z" fill="#111111"/>
<path d="M11.8225 0.4135L19.3495 7.9495L19.4295 7.8695C19.5872 7.71518 19.7983 7.62768 20.0189 7.62526C20.2395 7.62284 20.4525 7.70568 20.6135 7.8565L20.6195 7.8625L21.4865 8.7295C21.7915 9.0345 21.8015 9.4995 21.5695 9.8235L21.5655 9.8305L21.4225 10.0225L27.5825 16.1825C28.1325 16.7325 28.1325 17.6125 27.5825 18.1625L18.1525 27.5925C17.6025 28.1425 16.7225 28.1425 16.1725 27.5925L11.7255 23.1455C11.6516 23.2386 11.5589 23.315 11.4534 23.3697C11.3479 23.4244 11.2321 23.4561 11.1134 23.4628C10.9948 23.4695 10.8761 23.451 10.7651 23.4086C10.6541 23.3661 10.5534 23.3007 10.4695 23.2165L7.8695 20.6165C7.71518 20.4588 7.62768 20.2477 7.62526 20.0271C7.62284 19.8065 7.70568 19.5935 7.8565 19.4325L7.8625 19.4255L7.9395 19.3495L0.4125 11.8225C-0.1375 11.2725 -0.1375 10.3925 0.4125 9.8425L9.8425 0.4125C10.3925 -0.1375 11.2725 -0.1375 11.8225 0.4125V0.4135ZM18.4045 8.8935L16.6485 7.1385C16.5933 7.08159 16.5273 7.03634 16.4543 7.00544C16.3812 6.97454 16.3028 6.95862 16.2235 6.95862C16.1442 6.95862 16.0658 6.97454 15.9928 7.00544C15.9197 7.03634 15.8537 7.08159 15.7985 7.1385L12.2185 10.7185C12.1618 10.7748 12.1168 10.8418 12.086 10.9156C12.0553 10.9894 12.0395 11.0686 12.0395 11.1485C12.0395 11.2284 12.0553 11.3076 12.086 11.3814C12.1168 11.4552 12.1618 11.5222 12.2185 11.5785L13.9675 13.3275L14.5775 12.7175L13.0125 11.1525L16.2225 7.9325L17.7915 9.5065L18.4045 8.8935ZM13.3285 13.9655L11.5745 12.2115C11.5193 12.1546 11.4533 12.1093 11.3803 12.0784C11.3072 12.0475 11.2288 12.0316 11.1495 12.0316C11.0702 12.0316 10.9918 12.0475 10.9188 12.0784C10.8457 12.1093 10.7797 12.1546 10.7245 12.2115L7.1445 15.7915L7.1395 15.7965L7.1345 15.8015C6.8945 16.0315 6.8945 16.4115 7.1345 16.6515L8.8865 18.4035L9.5025 17.7875L7.9325 16.2235L11.1525 13.0135L12.7165 14.5765L13.3285 13.9655ZM6.8225 6.1935L10.4025 9.7735C10.6425 10.0135 11.0225 10.0135 11.2525 9.7635L14.8325 6.1835C14.8894 6.12933 14.9347 6.06417 14.9656 5.99197C14.9965 5.91978 15.0125 5.84205 15.0125 5.7635H15.0225C15.0225 5.6135 14.9625 5.4535 14.8425 5.3335L11.2625 1.7535C11.2062 1.69666 11.1393 1.65153 11.0655 1.62074C10.9917 1.58994 10.9125 1.57409 10.8325 1.57409C10.7525 1.57409 10.6733 1.58994 10.5995 1.62074C10.5257 1.65153 10.4588 1.69666 10.4025 1.7535L6.8225 5.3435C6.5825 5.5735 6.5825 5.9535 6.8225 6.1935ZM1.7525 11.2635L5.3325 14.8435C5.5725 15.0835 5.9525 15.0835 6.1825 14.8435L9.7625 11.2635C9.82062 11.2082 9.86662 11.1414 9.8976 11.0674C9.92858 10.9934 9.94387 10.9137 9.9425 10.8335H9.9525C9.9525 10.6735 9.8925 10.5235 9.7725 10.4035L6.1925 6.8235C6.13731 6.76659 6.07126 6.72134 5.99825 6.69044C5.92525 6.65954 5.84678 6.64361 5.7675 6.64361C5.68822 6.64361 5.60976 6.65954 5.53675 6.69044C5.46374 6.72134 5.39769 6.76659 5.3425 6.8235L1.7525 10.4135C1.5125 10.6435 1.5125 11.0235 1.7525 11.2635ZM8.6855 20.0175L11.0475 22.3805L20.6835 9.3405L20.0285 8.6855L8.6855 20.0175Z" fill="#FD9222"/>
</svg>
